ISO-10303-21;
HEADER;
FILE_DESCRIPTION (( 'STEP AP203' ),
    '1' );
FILE_NAME ('TMH Single Output.STEP',
    '2020-11-13T07:14:02',
    ( '' ),
    ( '' ),
    'SwSTEP 2.0',
    'SolidWorks 2020',
    '' );
FILE_SCHEMA (( 'CONFIG_CONTROL_DESIGN' ));
ENDSEC;

DATA;
#1 = PLANE ( 'NONE',  #584 ) ;
#2 = EDGE_CURVE ( 'NONE', #724, #181, #17, .T. ) ;
#3 = VERTEX_POINT ( 'NONE', #460 ) ;
#4 = EDGE_LOOP ( 'NONE', ( #697, #496, #213, #175 ) ) ;
#5 = EDGE_CURVE ( 'NONE', #715, #724, #587, .T. ) ;
#6 = ORIENTED_EDGE ( 'NONE', *, *, #507, .T. ) ;
#7 = PLANE ( 'NONE',  #211 ) ;
#8 = DIRECTION ( 'NONE',  ( 0.0000000000000000000, 0.0000000000000000000, -1.000000000000000000 ) ) ;
#9 = EDGE_LOOP ( 'NONE', ( #35, #653, #592, #242 ) ) ;
#10 = VECTOR ( 'NONE', #338, 1000.000000000000000 ) ;
#11 = COORDINATED_UNIVERSAL_TIME_OFFSET ( 8, 0, .AHEAD. ) ;
#12 = CARTESIAN_POINT ( 'NONE',  ( 5.299999999999998934, -3.700000000000000178, -2.500000000000000000 ) ) ;
#13 = ORIENTED_EDGE ( 'NONE', *, *, #180, .F. ) ;
#14 = APPROVAL_STATUS ( 'not_yet_approved' ) ;
#15 = EDGE_CURVE ( 'NONE', #641, #73, #675, .T. ) ;
#16 = DIRECTION ( 'NONE',  ( 0.0000000000000000000, -1.000000000000000000, 0.0000000000000000000 ) ) ;
#17 = LINE ( 'NONE', #90, #788 ) ;
#18 = ORIENTED_EDGE ( 'NONE', *, *, #298, .F. ) ;
#19 = CALENDAR_DATE ( 2020, 13, 11 ) ;
#20 = EDGE_CURVE ( 'NONE', #663, #359, #657, .T. ) ;
#21 = PLANE ( 'NONE',  #842 ) ;
#22 = FACE_OUTER_BOUND ( 'NONE', #145, .T. ) ;
#23 = AXIS2_PLACEMENT_3D ( 'NONE', #520, #892, #169 ) ;
#24 = ORIENTED_EDGE ( 'NONE', *, *, #285, .F. ) ;
#25 = APPROVAL_PERSON_ORGANIZATION ( #360, #279, #365 ) ;
#26 = DIRECTION ( 'NONE',  ( 0.0000000000000000000, -0.0000000000000000000, -1.000000000000000000 ) ) ;
#27 = DIRECTION ( 'NONE',  ( -0.0000000000000000000, -0.0000000000000000000, -1.000000000000000000 ) ) ;
#28 = EDGE_LOOP ( 'NONE', ( #123, #13, #910, #846 ) ) ;
#29 = CARTESIAN_POINT ( 'NONE',  ( 0.2199999999999996958, -3.700000000000000178, -2.750000000000000444 ) ) ;
#30 = DIRECTION ( 'NONE',  ( 0.0000000000000000000, 0.0000000000000000000, -1.000000000000000000 ) ) ;
#31 = ADVANCED_FACE ( 'NONE', ( #385 ), #679, .T. ) ;
#32 = VERTEX_POINT ( 'NONE', #300 ) ;
#33 = DIRECTION ( 'NONE',  ( -1.000000000000000000, 0.0000000000000000000, -3.469446951953611033E-15 ) ) ;
#34 = CARTESIAN_POINT ( 'NONE',  ( -4.860000000000000320, -3.700000000000000178, -2.500000000000000000 ) ) ;
#35 = ORIENTED_EDGE ( 'NONE', *, *, #913, .T. ) ;
#36 = VECTOR ( 'NONE', #266, 1000.000000000000000 ) ;
#37 = EDGE_CURVE ( 'NONE', #461, #376, #662, .T. ) ;
#38 = CC_DESIGN_APPROVAL ( #813, ( #703 ) ) ;
#39 = PLANE ( 'NONE',  #699 ) ;
#40 = ORIENTED_EDGE ( 'NONE', *, *, #358, .F. ) ;
#41 = FACE_BOUND ( 'NONE', #259, .T. ) ;
#42 = EDGE_CURVE ( 'NONE', #32, #296, #534, .T. ) ;
#43 = DIRECTION ( 'NONE',  ( 1.000000000000000000, 0.0000000000000000000, 0.0000000000000000000 ) ) ;
#44 = CARTESIAN_POINT ( 'NONE',  ( -4.859999999999999432, -3.700000000000000178, -2.750000000000000444 ) ) ;
#45 = EDGE_LOOP ( 'NONE', ( #406, #929, #96, #613 ) ) ;
#46 = DIRECTION ( 'NONE',  ( 1.000000000000000000, 0.0000000000000000000, 0.0000000000000000000 ) ) ;
#47 = ORIENTED_EDGE ( 'NONE', *, *, #346, .T. ) ;
#48 = PLANE ( 'NONE',  #173 ) ;
#49 = DIRECTION ( 'NONE',  ( 0.0000000000000000000, 0.0000000000000000000, -1.000000000000000000 ) ) ;
#50 = EDGE_LOOP ( 'NONE', ( #172, #916, #425, #280 ) ) ;
#51 = VECTOR ( 'NONE', #116, 1000.000000000000000 ) ;
#52 = VECTOR ( 'NONE', #274, 1000.000000000000000 ) ;
#53 = PERSON ( 'UNSPECIFIED', 'UNSPECIFIED', 'UNSPECIFIED', ('UNSPECIFIED'), ('UNSPECIFIED'), ('UNSPECIFIED') ) ;
#54 = VECTOR ( 'NONE', #908, 1000.000000000000000 ) ;
#55 = FACE_OUTER_BOUND ( 'NONE', #9, .T. ) ;
#56 = ORIENTED_EDGE ( 'NONE', *, *, #736, .F. ) ;
#57 = ADVANCED_FACE ( 'NONE', ( #455 ), #598, .F. ) ;
#58 = LINE ( 'NONE', #576, #672 ) ;
#59 = CARTESIAN_POINT ( 'NONE',  ( 9.249999999999998224, -0.5000000000000000000, 3.800000000000003375 ) ) ;
#60 = ORIENTED_EDGE ( 'NONE', *, *, #391, .F. ) ;
#61 = ADVANCED_FACE ( 'NONE', ( #818 ), #310, .F. ) ;
#62 = CARTESIAN_POINT ( 'NONE',  ( -5.359999999999999432, -3.700000000000000178, -2.500000000000000000 ) ) ;
#63 = DIRECTION ( 'NONE',  ( -0.0000000000000000000, -1.000000000000000000, -0.0000000000000000000 ) ) ;
#64 = EDGE_LOOP ( 'NONE', ( #783, #734, #529, #345 ) ) ;
#65 = ORIENTED_EDGE ( 'NONE', *, *, #148, .F. ) ;
#66 = EDGE_CURVE ( 'NONE', #359, #341, #83, .T. ) ;
#67 = VECTOR ( 'NONE', #603, 1000.000000000000000 ) ;
#68 = CARTESIAN_POINT ( 'NONE',  ( 4.800000000000000711, -3.700000000000000178, -2.500000000000000000 ) ) ;
#69 = ORIENTED_EDGE ( 'NONE', *, *, #426, .F. ) ;
#70 = DIRECTION ( 'NONE',  ( -0.0000000000000000000, -0.0000000000000000000, -1.000000000000000000 ) ) ;
#71 = EDGE_CURVE ( 'NONE', #3, #439, #160, .T. ) ;
#72 = CARTESIAN_POINT ( 'NONE',  ( -9.750000000000001776, 9.700000000000001066, -3.799999999999999822 ) ) ;
#73 = VERTEX_POINT ( 'NONE', #744 ) ;
#74 = COORDINATED_UNIVERSAL_TIME_OFFSET ( 8, 0, .AHEAD. ) ;
#75 = DIRECTION ( 'NONE',  ( 1.000000000000000000, 0.0000000000000000000, 0.0000000000000000000 ) ) ;
#76 = DIRECTION ( 'NONE',  ( -0.0000000000000000000, 1.000000000000000000, -0.0000000000000000000 ) ) ;
#77 = EDGE_LOOP ( 'NONE', ( #475, #166, #506, #618 ) ) ;
#78 = ORIENTED_EDGE ( 'NONE', *, *, #2, .F. ) ;
#79 = APPLICATION_PROTOCOL_DEFINITION ( 'international standard', 'config_control_design', 1994, #226 ) ;
#80 = PLANE ( 'NONE',  #919 ) ;
#81 = DIRECTION ( 'NONE',  ( 0.0000000000000000000, 0.0000000000000000000, -1.000000000000000000 ) ) ;
#82 = VECTOR ( 'NONE', #804, 1000.000000000000000 ) ;
#83 = LINE ( 'NONE', #525, #153 ) ;
#84 = VECTOR ( 'NONE', #619, 1000.000000000000000 ) ;
#85 = ADVANCED_FACE ( 'NONE', ( #22 ), #305, .F. ) ;
#86 = ORIENTED_EDGE ( 'NONE', *, *, #784, .F. ) ;
#87 = SECURITY_CLASSIFICATION_LEVEL ( 'unclassified' ) ;
#88 = DIRECTION ( 'NONE',  ( 0.0000000000000000000, -1.000000000000000000, 0.0000000000000000000 ) ) ;
#89 = LINE ( 'NONE', #223, #384 ) ;
#90 = CARTESIAN_POINT ( 'NONE',  ( 5.299999999999998934, -3.700000000000000178, -2.500000000000000000 ) ) ;
#91 = ORIENTED_EDGE ( 'NONE', *, *, #42, .T. ) ;
#92 = ADVANCED_FACE ( 'NONE', ( #539 ), #604, .F. ) ;
#93 = CARTESIAN_POINT ( 'NONE',  ( 0.2199999999999988354, 0.0000000000000000000, -2.500000000000000000 ) ) ;
#94 = DIRECTION ( 'NONE',  ( 1.000000000000000000, 0.0000000000000000000, 0.0000000000000000000 ) ) ;
#95 = DIRECTION ( 'NONE',  ( -0.0000000000000000000, 1.000000000000000000, -0.0000000000000000000 ) ) ;
#96 = ORIENTED_EDGE ( 'NONE', *, *, #507, .F. ) ;
#97 = CARTESIAN_POINT ( 'NONE',  ( -0.2799999999999998601, -3.700000000000000178, -2.750000000000000444 ) ) ;
#98 = VERTEX_POINT ( 'NONE', #799 ) ;
#99 = VECTOR ( 'NONE', #443, 1000.000000000000000 ) ;
#100 = ORIENTED_EDGE ( 'NONE', *, *, #877, .T. ) ;
#101 = VECTOR ( 'NONE', #373, 1000.000000000000000 ) ;
#102 = FACE_OUTER_BOUND ( 'NONE', #776, .T. ) ;
#103 = EDGE_CURVE ( 'NONE', #314, #421, #149, .T. ) ;
#104 = CARTESIAN_POINT ( 'NONE',  ( 9.249999999999998224, -0.5000000000000000000, -3.799999999999998490 ) ) ;
#105 = VERTEX_POINT ( 'NONE', #909 ) ;
#106 = CARTESIAN_POINT ( 'NONE',  ( 9.750000000000000000, 9.700000000000001066, 3.799999999999999822 ) ) ;
#107 = FACE_OUTER_BOUND ( 'NONE', #362, .T. ) ;
#108 = CARTESIAN_POINT ( 'NONE',  ( -7.899999999999999467, -3.700000000000000178, -2.500000000000000000 ) ) ;
#109 = ORIENTED_EDGE ( 'NONE', *, *, #177, .F. ) ;
#110 = CARTESIAN_POINT ( 'NONE',  ( -7.399999999999999467, -3.700000000000000178, -2.750000000000000444 ) ) ;
#111 = CARTESIAN_POINT ( 'NONE',  ( -9.750000000000001776, 9.700000000000001066, -3.799999999999999822 ) ) ;
#112 = ORIENTED_EDGE ( 'NONE', *, *, #391, .T. ) ;
#113 = VECTOR ( 'NONE', #63, 1000.000000000000000 ) ;
#114 = LINE ( 'NONE', #607, #731 ) ;
#115 = VECTOR ( 'NONE', #872, 1000.000000000000000 ) ;
#116 = DIRECTION ( 'NONE',  ( -0.0000000000000000000, 1.000000000000000000, -0.0000000000000000000 ) ) ;
#117 = CARTESIAN_POINT ( 'NONE',  ( 0.2199999999999988354, -3.700000000000000178, -2.500000000000000000 ) ) ;
#118 = ORIENTED_EDGE ( 'NONE', *, *, #324, .T. ) ;
#119 = PLANE ( 'NONE',  #806 ) ;
#120 = VERTEX_POINT ( 'NONE', #250 ) ;
#121 = EDGE_CURVE ( 'NONE', #461, #98, #830, .T. ) ;
#122 = LINE ( 'NONE', #108, #198 ) ;
#123 = ORIENTED_EDGE ( 'NONE', *, *, #469, .T. ) ;
#124 = VECTOR ( 'NONE', #896, 1000.000000000000000 ) ;
#125 = AXIS2_PLACEMENT_3D ( 'NONE', #409, #621, #899 ) ;
#126 = CARTESIAN_POINT ( 'NONE',  ( 4.800000000000000711, 0.0000000000000000000, -2.500000000000000000 ) ) ;
#127 = CARTESIAN_POINT ( 'NONE',  ( 4.800000000000000711, 0.0000000000000000000, -2.500000000000000000 ) ) ;
#128 = CC_DESIGN_DATE_AND_TIME_ASSIGNMENT ( #659, #791, ( #703 ) ) ;
#129 = VERTEX_POINT ( 'NONE', #44 ) ;
#130 = CARTESIAN_POINT ( 'NONE',  ( -9.750000000000000000, 9.700000000000001066, 3.799999999999999822 ) ) ;
#131 = VERTEX_POINT ( 'NONE', #839 ) ;
#132 = ADVANCED_FACE ( 'NONE', ( #696 ), #119, .T. ) ;
#133 = ORIENTED_EDGE ( 'NONE', *, *, #66, .F. ) ;
#134 = CARTESIAN_POINT ( 'NONE',  ( -4.859999999999999432, 0.0000000000000000000, -2.750000000000000444 ) ) ;
#135 = CARTESIAN_POINT ( 'NONE',  ( -5.359999999999999432, -3.700000000000000178, -2.500000000000000000 ) ) ;
#136 = VERTEX_POINT ( 'NONE', #553 ) ;
#137 =( NAMED_UNIT ( * ) PLANE_ANGLE_UNIT ( ) SI_UNIT ( $, .RADIAN. ) );
#138 = EDGE_CURVE ( 'NONE', #439, #228, #174, .T. ) ;
#139 = LINE ( 'NONE', #277, #643 ) ;
#140 = DIRECTION ( 'NONE',  ( 0.0000000000000000000, -0.0000000000000000000, -1.000000000000000000 ) ) ;
#141 = EDGE_LOOP ( 'NONE', ( #807, #142, #526, #770, #204, #606, #24, #704 ) ) ;
#142 = ORIENTED_EDGE ( 'NONE', *, *, #768, .F. ) ;
#143 = COORDINATED_UNIVERSAL_TIME_OFFSET ( 8, 0, .AHEAD. ) ;
#144 = LINE ( 'NONE', #437, #36 ) ;
#145 = EDGE_LOOP ( 'NONE', ( #638, #683, #321, #763 ) ) ;
#146 = CARTESIAN_POINT ( 'NONE',  ( 0.0000000000000000000, -3.700000000000000178, 0.0000000000000000000 ) ) ;
#147 = FACE_OUTER_BOUND ( 'NONE', #237, .T. ) ;
#148 = EDGE_CURVE ( 'NONE', #131, #599, #122, .T. ) ;
#149 = LINE ( 'NONE', #546, #615 ) ;
#150 = EDGE_LOOP ( 'NONE', ( #531, #109, #866, #823 ) ) ;
#151 = PERSON_AND_ORGANIZATION ( #53, #602 ) ;
#152 = CARTESIAN_POINT ( 'NONE',  ( 0.2199999999999988354, -3.700000000000000178, -2.500000000000000000 ) ) ;
#153 = VECTOR ( 'NONE', #165, 1000.000000000000000 ) ;
#154 = CARTESIAN_POINT ( 'NONE',  ( -5.359999999999999432, 0.0000000000000000000, -2.500000000000000000 ) ) ;
#155 = VECTOR ( 'NONE', #838, 1000.000000000000000 ) ;
#156 = EDGE_CURVE ( 'NONE', #421, #157, #318, .T. ) ;
#157 = VERTEX_POINT ( 'NONE', #845 ) ;
#158 = LINE ( 'NONE', #453, #101 ) ;
#159 = LINE ( 'NONE', #235, #337 ) ;
#160 = LINE ( 'NONE', #739, #240 ) ;
#161 = ORIENTED_EDGE ( 'NONE', *, *, #620, .F. ) ;
#162 = APPROVAL_DATE_TIME ( #532, #813 ) ;
#163 = ADVANCED_FACE ( 'NONE', ( #395 ), #179, .T. ) ;
#164 = FACE_OUTER_BOUND ( 'NONE', #4, .T. ) ;
#165 = DIRECTION ( 'NONE',  ( 0.0000000000000000000, 0.0000000000000000000, -1.000000000000000000 ) ) ;
#166 = ORIENTED_EDGE ( 'NONE', *, *, #494, .T. ) ;
#167 = EDGE_CURVE ( 'NONE', #120, #382, #762, .T. ) ;
#168 = LINE ( 'NONE', #721, #716 ) ;
#169 = DIRECTION ( 'NONE',  ( -2.282530889443167515E-16, 0.0000000000000000000, -1.000000000000000000 ) ) ;
#170 = AXIS2_PLACEMENT_3D ( 'NONE', #258, #558, #758 ) ;
#171 = VECTOR ( 'NONE', #248, 1000.000000000000000 ) ;
#172 = ORIENTED_EDGE ( 'NONE', *, *, #645, .T. ) ;
#173 = AXIS2_PLACEMENT_3D ( 'NONE', #468, #557, #843 ) ;
#174 = LINE ( 'NONE', #490, #917 ) ;
#175 = ORIENTED_EDGE ( 'NONE', *, *, #71, .T. ) ;
#176 = LINE ( 'NONE', #612, #400 ) ;
#177 = EDGE_CURVE ( 'NONE', #611, #658, #835, .T. ) ;
#178 = ORIENTED_EDGE ( 'NONE', *, *, #660, .F. ) ;
#179 = PLANE ( 'NONE',  #170 ) ;
#180 = EDGE_CURVE ( 'NONE', #314, #412, #176, .T. ) ;
#181 = VERTEX_POINT ( 'NONE', #239 ) ;
#182 = VECTOR ( 'NONE', #798, 1000.000000000000000 ) ;
#183 = LOCAL_TIME ( 15, 14, 2.000000000000000000, #11 ) ;
#184 = PLANE ( 'NONE',  #789 ) ;
#185 = FACE_OUTER_BOUND ( 'NONE', #212, .T. ) ;
#186 = ORIENTED_EDGE ( 'NONE', *, *, #913, .F. ) ;
#187 = PLANE ( 'NONE',  #826 ) ;
#188 = PLANE ( 'NONE',  #747 ) ;
#189 = DIRECTION ( 'NONE',  ( 0.0000000000000000000, -1.000000000000000000, 0.0000000000000000000 ) ) ;
#190 = EDGE_LOOP ( 'NONE', ( #112, #752, #680, #331 ) ) ;
#191 = CARTESIAN_POINT ( 'NONE',  ( -0.2799999999999998601, -3.700000000000000178, -2.500000000000000000 ) ) ;
#192 = CC_DESIGN_DATE_AND_TIME_ASSIGNMENT ( #521, #889, ( #458 ) ) ;
#193 = PLANE ( 'NONE',  #351 ) ;
#194 = LINE ( 'NONE', #711, #465 ) ;
#195 = UNCERTAINTY_MEASURE_WITH_UNIT (LENGTH_MEASURE( 1.000000000000000082E-05 ), #488, 'distance_accuracy_value', 'NONE');
#196 = ORIENTED_EDGE ( 'NONE', *, *, #249, .F. ) ;
#197 = DIRECTION ( 'NONE',  ( 1.000000000000000000, 0.0000000000000000000, 0.0000000000000000000 ) ) ;
#198 = VECTOR ( 'NONE', #766, 1000.000000000000000 ) ;
#199 = CARTESIAN_POINT ( 'NONE',  ( -9.750000000000001776, 0.0000000000000000000, -3.799999999999999822 ) ) ;
#200 = VERTEX_POINT ( 'NONE', #900 ) ;
#201 = FACE_OUTER_BOUND ( 'NONE', #708, .T. ) ;
#202 = DIRECTION ( 'NONE',  ( -1.000000000000000000, -0.0000000000000000000, -0.0000000000000000000 ) ) ;
#203 = CARTESIAN_POINT ( 'NONE',  ( -9.750000000000001776, 9.700000000000001066, -3.799999999999999822 ) ) ;
#204 = ORIENTED_EDGE ( 'NONE', *, *, #71, .F. ) ;
#205 = CC_DESIGN_PERSON_AND_ORGANIZATION_ASSIGNMENT ( #871, #221, ( #703 ) ) ;
#206 = LINE ( 'NONE', #509, #630 ) ;
#207 = VERTEX_POINT ( 'NONE', #117 ) ;
#208 = ORIENTED_EDGE ( 'NONE', *, *, #931, .T. ) ;
#209 = CALENDAR_DATE ( 2020, 13, 11 ) ;
#210 = CARTESIAN_POINT ( 'NONE',  ( 9.749999999999998224, 9.700000000000001066, -3.799999999999999822 ) ) ;
#211 = AXIS2_PLACEMENT_3D ( 'NONE', #146, #88, #816 ) ;
#212 = EDGE_LOOP ( 'NONE', ( #381, #646, #65, #482 ) ) ;
#213 = ORIENTED_EDGE ( 'NONE', *, *, #304, .F. ) ;
#214 = DIRECTION ( 'NONE',  ( -3.469446951953611033E-15, -0.0000000000000000000, 1.000000000000000000 ) ) ;
#215 = EDGE_CURVE ( 'NONE', #796, #105, #474, .T. ) ;
#216 = CARTESIAN_POINT ( 'NONE',  ( 9.749999999999998224, 9.700000000000001066, -3.799999999999999822 ) ) ;
#217 = ADVANCED_FACE ( 'NONE', ( #185 ), #39, .F. ) ;
#218 = PLANE ( 'NONE',  #554 ) ;
#219 = CARTESIAN_POINT ( 'NONE',  ( 9.249999999999998224, -0.5000000000000000000, -3.799999999999998490 ) ) ;
#220 = ORIENTED_EDGE ( 'NONE', *, *, #793, .T. ) ;
#221 = PERSON_AND_ORGANIZATION_ROLE ( 'classification_officer' ) ;
#222 = LINE ( 'NONE', #308, #431 ) ;
#223 = CARTESIAN_POINT ( 'NONE',  ( -4.860000000000000320, -3.700000000000000178, -2.500000000000000000 ) ) ;
#224 = VECTOR ( 'NONE', #353, 1000.000000000000000 ) ;
#225 = DIRECTION ( 'NONE',  ( 2.282530889443167515E-16, 0.0000000000000000000, 1.000000000000000000 ) ) ;
#226 = APPLICATION_CONTEXT ( 'configuration controlled 3d designs of mechanical parts and assemblies' ) ;
#227 = ADVANCED_FACE ( 'NONE', ( #912 ), #754, .F. ) ;
#228 = VERTEX_POINT ( 'NONE', #486 ) ;
#229 = PERSON_AND_ORGANIZATION_ROLE ( 'creator' ) ;
#230 = LINE ( 'NONE', #811, #512 ) ;
#231 = CARTESIAN_POINT ( 'NONE',  ( 0.0000000000000000000, -3.700000000000000178, 0.0000000000000000000 ) ) ;
#232 = EDGE_CURVE ( 'NONE', #129, #307, #326, .T. ) ;
#233 = ORIENTED_EDGE ( 'NONE', *, *, #329, .F. ) ;
#234 = CARTESIAN_POINT ( 'NONE',  ( -0.2799999999999998601, -3.700000000000000178, -2.750000000000000444 ) ) ;
#235 = CARTESIAN_POINT ( 'NONE',  ( -5.359999999999999432, -3.700000000000000178, -2.500000000000000000 ) ) ;
#236 = DIRECTION ( 'NONE',  ( -0.0000000000000000000, 0.0000000000000000000, -1.000000000000000000 ) ) ;
#237 = EDGE_LOOP ( 'NONE', ( #840, #220, #254, #6 ) ) ;
#238 = CARTESIAN_POINT ( 'NONE',  ( 5.299999999999998934, -3.700000000000000178, -2.500000000000000000 ) ) ;
#239 = CARTESIAN_POINT ( 'NONE',  ( 5.299999999999998934, 0.0000000000000000000, -2.500000000000000000 ) ) ;
#240 = VECTOR ( 'NONE', #95, 1000.000000000000000 ) ;
#241 = AXIS2_PLACEMENT_3D ( 'NONE', #62, #493, #772 ) ;
#242 = ORIENTED_EDGE ( 'NONE', *, *, #304, .T. ) ;
#243 = ADVANCED_FACE ( 'NONE', ( #906 ), #245, .F. ) ;
#244 = DIRECTION ( 'NONE',  ( 0.0000000000000000000, 0.0000000000000000000, -1.000000000000000000 ) ) ;
#245 = PLANE ( 'NONE',  #601 ) ;
#246 = EDGE_LOOP ( 'NONE', ( #47, #186, #364, #402, #233, #907, #849, #795 ) ) ;
#247 = CARTESIAN_POINT ( 'NONE',  ( -5.359999999999999432, -3.700000000000000178, -2.750000000000000444 ) ) ;
#248 = DIRECTION ( 'NONE',  ( -0.0000000000000000000, 1.000000000000000000, -0.0000000000000000000 ) ) ;
#249 = EDGE_CURVE ( 'NONE', #510, #439, #924, .T. ) ;
#250 = CARTESIAN_POINT ( 'NONE',  ( 9.749999999999998224, 9.700000000000001066, -3.799999999999999822 ) ) ;
#251 = ORIENTED_EDGE ( 'NONE', *, *, #180, .T. ) ;
#252 = CARTESIAN_POINT ( 'NONE',  ( -7.400000000000000355, 0.0000000000000000000, -2.500000000000000000 ) ) ;
#253 = DIRECTION ( 'NONE',  ( -0.0000000000000000000, 1.000000000000000000, -0.0000000000000000000 ) ) ;
#254 = ORIENTED_EDGE ( 'NONE', *, *, #232, .T. ) ;
#255 = EDGE_CURVE ( 'NONE', #650, #760, #640, .T. ) ;
#256 = DIRECTION ( 'NONE',  ( 0.0000000000000000000, 0.0000000000000000000, -1.000000000000000000 ) ) ;
#257 = CARTESIAN_POINT ( 'NONE',  ( -0.2799999999999998601, 0.0000000000000000000, -2.500000000000000000 ) ) ;
#258 = CARTESIAN_POINT ( 'NONE',  ( 0.0000000000000000000, 9.700000000000001066, 0.0000000000000000000 ) ) ;
#259 = EDGE_LOOP ( 'NONE', ( #689, #575, #349, #925 ) ) ;
#260 = CC_DESIGN_PERSON_AND_ORGANIZATION_ASSIGNMENT ( #440, #527, ( #417 ) ) ;
#261 = DIRECTION ( 'NONE',  ( -1.000000000000000000, 0.0000000000000000000, -0.0000000000000000000 ) ) ;
#262 = CARTESIAN_POINT ( 'NONE',  ( -7.400000000000000355, -3.700000000000000178, -2.500000000000000000 ) ) ;
#263 = LINE ( 'NONE', #500, #319 ) ;
#264 = ORIENTED_EDGE ( 'NONE', *, *, #469, .F. ) ;
#265 = CARTESIAN_POINT ( 'NONE',  ( 0.2199999999999988354, -3.700000000000000178, -2.500000000000000000 ) ) ;
#266 = DIRECTION ( 'NONE',  ( 0.0000000000000000000, 0.0000000000000000000, -1.000000000000000000 ) ) ;
#267 = ORIENTED_EDGE ( 'NONE', *, *, #121, .F. ) ;
#268 = CARTESIAN_POINT ( 'NONE',  ( -7.899999999999999467, -3.700000000000000178, -2.500000000000000000 ) ) ;
#269 = VECTOR ( 'NONE', #733, 1000.000000000000000 ) ;
#270 = AXIS2_PLACEMENT_3D ( 'NONE', #403, #407, #694 ) ;
#271 = CARTESIAN_POINT ( 'NONE',  ( 9.249999999999998224, 0.0000000000000000000, -3.799999999999998490 ) ) ;
#272 = LOCAL_TIME ( 15, 14, 2.000000000000000000, #590 ) ;
#273 = ADVANCED_FACE ( 'NONE', ( #855 ), #873, .F. ) ;
#274 = DIRECTION ( 'NONE',  ( 2.282530889443167515E-16, 0.0000000000000000000, 1.000000000000000000 ) ) ;
#275 = ORIENTED_EDGE ( 'NONE', *, *, #736, .T. ) ;
#276 = DIRECTION ( 'NONE',  ( 0.0000000000000000000, 0.0000000000000000000, -1.000000000000000000 ) ) ;
#277 = CARTESIAN_POINT ( 'NONE',  ( -7.400000000000000355, -3.700000000000000178, -2.500000000000000000 ) ) ;
#278 = DIRECTION ( 'NONE',  ( -3.469446951953611033E-15, -0.0000000000000000000, 1.000000000000000000 ) ) ;
#279 = APPROVAL ( #815, 'UNSPECIFIED' ) ;
#280 = ORIENTED_EDGE ( 'NONE', *, *, #865, .T. ) ;
#281 = APPROVAL_ROLE ( '' ) ;
#282 = CARTESIAN_POINT ( 'NONE',  ( 4.800000000000000711, -3.700000000000000178, -2.500000000000000000 ) ) ;
#283 = DIRECTION ( 'NONE',  ( -1.000000000000000000, -0.0000000000000000000, -0.0000000000000000000 ) ) ;
#284 = ORIENTED_EDGE ( 'NONE', *, *, #713, .T. ) ;
#285 = EDGE_CURVE ( 'NONE', #382, #627, #648, .T. ) ;
#286 = DIRECTION ( 'NONE',  ( 0.0000000000000000000, 0.0000000000000000000, 1.000000000000000000 ) ) ;
#287 = VECTOR ( 'NONE', #283, 1000.000000000000000 ) ;
#288 = VECTOR ( 'NONE', #853, 1000.000000000000000 ) ;
#289 = LINE ( 'NONE', #586, #462 ) ;
#290 = LOCAL_TIME ( 15, 14, 2.000000000000000000, #377 ) ;
#291 = ORIENTED_EDGE ( 'NONE', *, *, #605, .F. ) ;
#292 = DATE_AND_TIME ( #808, #183 ) ;
#293 = EDGE_CURVE ( 'NONE', #376, #131, #263, .T. ) ;
#294 = CARTESIAN_POINT ( 'NONE',  ( -9.250000000000001776, -0.5000000000000000000, 3.799999999999999822 ) ) ;
#295 = CARTESIAN_POINT ( 'NONE',  ( -7.899999999999999467, -3.700000000000000178, -2.750000000000000444 ) ) ;
#296 = VERTEX_POINT ( 'NONE', #424 ) ;
#297 = PERSON_AND_ORGANIZATION ( #53, #602 ) ;
#298 = EDGE_CURVE ( 'NONE', #120, #390, #515, .T. ) ;
#299 = CARTESIAN_POINT ( 'NONE',  ( 9.249999999999998224, 0.0000000000000000000, 3.800000000000003375 ) ) ;
#300 = CARTESIAN_POINT ( 'NONE',  ( 9.249999999999998224, -0.5000000000000000000, 3.800000000000003375 ) ) ;
#301 = ORIENTED_EDGE ( 'NONE', *, *, #103, .F. ) ;
#302 = APPROVAL_ROLE ( '' ) ;
#303 = VECTOR ( 'NONE', #253, 1000.000000000000000 ) ;
#304 = EDGE_CURVE ( 'NONE', #3, #874, #194, .T. ) ;
#305 = PLANE ( 'NONE',  #367 ) ;
#306 = VECTOR ( 'NONE', #522, 1000.000000000000000 ) ;
#307 = VERTEX_POINT ( 'NONE', #495 ) ;
#308 = CARTESIAN_POINT ( 'NONE',  ( 9.249999999999998224, -0.5000000000000000000, -3.799999999999998490 ) ) ;
#309 = CARTESIAN_POINT ( 'NONE',  ( -9.250000000000000000, 0.0000000000000000000, -3.799999999999999822 ) ) ;
#310 = PLANE ( 'NONE',  #902 ) ;
#311 = ORIENTED_EDGE ( 'NONE', *, *, #156, .F. ) ;
#312 = CARTESIAN_POINT ( 'NONE',  ( 4.800000000000000711, -3.700000000000000178, -2.500000000000000000 ) ) ;
#313 = DIRECTION ( 'NONE',  ( -0.0000000000000000000, 1.000000000000000000, -0.0000000000000000000 ) ) ;
#314 = VERTEX_POINT ( 'NONE', #577 ) ;
#315 = EDGE_CURVE ( 'NONE', #181, #658, #774, .T. ) ;
#316 = DIRECTION ( 'NONE',  ( 1.000000000000000000, 0.0000000000000000000, 0.0000000000000000000 ) ) ;
#317 = CARTESIAN_POINT ( 'NONE',  ( -7.400000000000000355, 0.0000000000000000000, -2.500000000000000000 ) ) ;
#318 = LINE ( 'NONE', #414, #303 ) ;
#319 = VECTOR ( 'NONE', #582, 1000.000000000000000 ) ;
#320 = VECTOR ( 'NONE', #316, 1000.000000000000000 ) ;
#321 = ORIENTED_EDGE ( 'NONE', *, *, #42, .F. ) ;
#322 = APPROVAL_PERSON_ORGANIZATION ( #594, #550, #281 ) ;
#323 = LINE ( 'NONE', #389, #84 ) ;
#324 = EDGE_CURVE ( 'NONE', #429, #98, #144, .T. ) ;
#325 = PLANE ( 'NONE',  #125 ) ;
#326 = LINE ( 'NONE', #34, #430 ) ;
#327 = ORIENTED_EDGE ( 'NONE', *, *, #5, .F. ) ;
#328 = FACE_OUTER_BOUND ( 'NONE', #720, .T. ) ;
#329 = EDGE_CURVE ( 'NONE', #32, #415, #433, .T. ) ;
#330 = DIRECTION ( 'NONE',  ( 0.0000000000000000000, 0.0000000000000000000, 1.000000000000000000 ) ) ;
#331 = ORIENTED_EDGE ( 'NONE', *, *, #625, .T. ) ;
#332 = ORIENTED_EDGE ( 'NONE', *, *, #463, .F. ) ;
#333 = PLANE ( 'NONE',  #339 ) ;
#334 = CARTESIAN_POINT ( 'NONE',  ( -5.359999999999999432, -3.700000000000000178, -2.750000000000000444 ) ) ;
#335 = ADVANCED_FACE ( 'NONE', ( #55 ), #1, .T. ) ;
#336 = ORIENTED_EDGE ( 'NONE', *, *, #156, .T. ) ;
#337 = VECTOR ( 'NONE', #8, 1000.000000000000000 ) ;
#338 = DIRECTION ( 'NONE',  ( -1.000000000000000000, -0.0000000000000000000, -0.0000000000000000000 ) ) ;
#339 = AXIS2_PLACEMENT_3D ( 'NONE', #238, #33, #394 ) ;
#340 = CARTESIAN_POINT ( 'NONE',  ( 0.2199999999999988354, 0.0000000000000000000, -2.500000000000000000 ) ) ;
#341 = VERTEX_POINT ( 'NONE', #928 ) ;
#342 = CARTESIAN_POINT ( 'NONE',  ( -9.750000000000000000, 9.700000000000001066, 3.799999999999999822 ) ) ;
#343 = CARTESIAN_POINT ( 'NONE',  ( 0.2199999999999996958, 0.0000000000000000000, -2.750000000000000444 ) ) ;
#344 = DIRECTION ( 'NONE',  ( 0.0000000000000000000, -1.000000000000000000, 0.0000000000000000000 ) ) ;
#345 = ORIENTED_EDGE ( 'NONE', *, *, #121, .T. ) ;
#346 = EDGE_CURVE ( 'NONE', #723, #200, #567, .T. ) ;
#347 = LINE ( 'NONE', #933, #52 ) ;
#348 = ORIENTED_EDGE ( 'NONE', *, *, #255, .F. ) ;
#349 = ORIENTED_EDGE ( 'NONE', *, *, #483, .F. ) ;
#350 = CLOSED_SHELL ( 'NONE', ( #781, #92, #870, #61, #243, #163, #690, #335, #85, #579, #859, #408, #633, #217, #684, #524, #227, #530, #655, #404, #422, #574, #536, #635, #132, #57, #501, #666, #273, #31 ) ) ;
#351 = AXIS2_PLACEMENT_3D ( 'NONE', #282, #419, #423 ) ;
#352 = EDGE_CURVE ( 'NONE', #390, #105, #347, .T. ) ;
#353 = DIRECTION ( 'NONE',  ( 0.0000000000000000000, 0.0000000000000000000, -1.000000000000000000 ) ) ;
#354 = ORIENTED_EDGE ( 'NONE', *, *, #352, .F. ) ;
#355 = PERSON_AND_ORGANIZATION_ROLE ( 'creator' ) ;
#356 = CARTESIAN_POINT ( 'NONE',  ( -4.860000000000000320, 0.0000000000000000000, -2.500000000000000000 ) ) ;
#357 = CARTESIAN_POINT ( 'NONE',  ( -0.2799999999999998601, -3.700000000000000178, -2.500000000000000000 ) ) ;
#358 = EDGE_CURVE ( 'NONE', #207, #760, #573, .T. ) ;
#359 = VERTEX_POINT ( 'NONE', #505 ) ;
#360 = PERSON_AND_ORGANIZATION ( #53, #602 ) ;
#361 = DIRECTION ( 'NONE',  ( -0.0000000000000000000, 0.0000000000000000000, 1.000000000000000000 ) ) ;
#362 = EDGE_LOOP ( 'NONE', ( #467, #78, #327, #275 ) ) ;
#363 = EDGE_CURVE ( 'NONE', #599, #429, #206, .T. ) ;
#364 = ORIENTED_EDGE ( 'NONE', *, *, #755, .T. ) ;
#365 = APPROVAL_ROLE ( '' ) ;
#366 = LINE ( 'NONE', #383, #306 ) ;
#367 = AXIS2_PLACEMENT_3D ( 'NONE', #104, #609, #236 ) ;
#368 = VECTOR ( 'NONE', #43, 1000.000000000000000 ) ;
#369 = CARTESIAN_POINT ( 'NONE',  ( -5.359999999999999432, -3.700000000000000178, -2.500000000000000000 ) ) ;
#370 = VERTEX_POINT ( 'NONE', #135 ) ;
#371 = ORIENTED_EDGE ( 'NONE', *, *, #565, .T. ) ;
#372 = PERSON_AND_ORGANIZATION ( #53, #602 ) ;
#373 = DIRECTION ( 'NONE',  ( -0.0000000000000000000, 1.000000000000000000, -0.0000000000000000000 ) ) ;
#374 = FACE_OUTER_BOUND ( 'NONE', #822, .T. ) ;
#375 = DIRECTION ( 'NONE',  ( 0.0000000000000000000, -0.0000000000000000000, -1.000000000000000000 ) ) ;
#376 = VERTEX_POINT ( 'NONE', #719 ) ;
#377 = COORDINATED_UNIVERSAL_TIME_OFFSET ( 8, 0, .AHEAD. ) ;
#378 = LINE ( 'NONE', #665, #115 ) ;
#379 = CC_DESIGN_PERSON_AND_ORGANIZATION_ASSIGNMENT ( #372, #730, ( #827 ) ) ;
#380 = LINE ( 'NONE', #152, #480 ) ;
#381 = ORIENTED_EDGE ( 'NONE', *, *, #674, .T. ) ;
#382 = VERTEX_POINT ( 'NONE', #72 ) ;
#383 = CARTESIAN_POINT ( 'NONE',  ( -9.750000000000000000, -0.5000000000000000000, 3.799999999999999822 ) ) ;
#384 = VECTOR ( 'NONE', #76, 1000.000000000000000 ) ;
#385 = FACE_OUTER_BOUND ( 'NONE', #487, .T. ) ;
#386 = VECTOR ( 'NONE', #70, 1000.000000000000000 ) ;
#387 = CC_DESIGN_SECURITY_CLASSIFICATION ( #703, ( #827 ) ) ;
#388 = ORIENTED_EDGE ( 'NONE', *, *, #805, .F. ) ;
#389 = CARTESIAN_POINT ( 'NONE',  ( 0.2199999999999996958, -3.700000000000000178, -2.750000000000000444 ) ) ;
#390 = VERTEX_POINT ( 'NONE', #428 ) ;
#391 = EDGE_CURVE ( 'NONE', #611, #837, #714, .T. ) ;
#392 = ORIENTED_EDGE ( 'NONE', *, *, #255, .T. ) ;
#393 = LINE ( 'NONE', #537, #320 ) ;
#394 = DIRECTION ( 'NONE',  ( -3.469446951953611033E-15, 0.0000000000000000000, 1.000000000000000000 ) ) ;
#395 = FACE_OUTER_BOUND ( 'NONE', #77, .T. ) ;
#396 = ORIENTED_EDGE ( 'NONE', *, *, #215, .T. ) ;
#397 = MANIFOLD_SOLID_BREP ( '¶ñ®Æ-¦ùªø3', #350 ) ;
#398 = CARTESIAN_POINT ( 'NONE',  ( -7.899999999999999467, -3.700000000000000178, -2.500000000000000000 ) ) ;
#399 = CARTESIAN_POINT ( 'NONE',  ( 9.750000000000000000, 9.700000000000001066, 3.799999999999999822 ) ) ;
#400 = VECTOR ( 'NONE', #549, 1000.000000000000000 ) ;
#401 = VECTOR ( 'NONE', #698, 1000.000000000000000 ) ;
#402 = ORIENTED_EDGE ( 'NONE', *, *, #560, .T. ) ;
#403 = CARTESIAN_POINT ( 'NONE',  ( 0.0000000000000000000, 0.0000000000000000000, 0.0000000000000000000 ) ) ;
#404 = ADVANCED_FACE ( 'NONE', ( #147 ), #519, .T. ) ;
#405 = CARTESIAN_POINT ( 'NONE',  ( -7.899999999999999467, -3.700000000000000178, -2.500000000000000000 ) ) ;
#406 = ORIENTED_EDGE ( 'NONE', *, *, #20, .T. ) ;
#407 = DIRECTION ( 'NONE',  ( 0.0000000000000000000, 1.000000000000000000, 0.0000000000000000000 ) ) ;
#408 = ADVANCED_FACE ( 'NONE', ( #608 ), #218, .F. ) ;
#409 = CARTESIAN_POINT ( 'NONE',  ( -4.860000000000000320, -3.700000000000000178, -2.500000000000000000 ) ) ;
#410 = CARTESIAN_POINT ( 'NONE',  ( 4.800000000000000711, -3.700000000000000178, -2.500000000000000000 ) ) ;
#411 = SHAPE_DEFINITION_REPRESENTATION ( #836, #771 ) ;
#412 = VERTEX_POINT ( 'NONE', #591 ) ;
#413 = FACE_OUTER_BOUND ( 'NONE', #668, .T. ) ;
#414 = CARTESIAN_POINT ( 'NONE',  ( -0.2799999999999998601, -3.700000000000000178, -2.750000000000000444 ) ) ;
#415 = VERTEX_POINT ( 'NONE', #299 ) ;
#416 = VECTOR ( 'NONE', #785, 1000.000000000000000 ) ;
#417 = PRODUCT ( 'TMH Single Output', 'TMH Single Output', '', ( #647 ) ) ;
#418 = LOCAL_TIME ( 15, 14, 2.000000000000000000, #74 ) ;
#419 = DIRECTION ( 'NONE',  ( 0.0000000000000000000, 0.0000000000000000000, -1.000000000000000000 ) ) ;
#420 = DIRECTION ( 'NONE',  ( -0.0000000000000000000, -1.000000000000000000, -0.0000000000000000000 ) ) ;
#421 = VERTEX_POINT ( 'NONE', #803 ) ;
#422 = ADVANCED_FACE ( 'NONE', ( #374 ), #738, .F. ) ;
#423 = DIRECTION ( 'NONE',  ( -1.000000000000000000, 0.0000000000000000000, -0.0000000000000000000 ) ) ;
#424 = CARTESIAN_POINT ( 'NONE',  ( 9.249999999999998224, -0.5000000000000000000, -3.799999999999998490 ) ) ;
#425 = ORIENTED_EDGE ( 'NONE', *, *, #793, .F. ) ;
#426 = EDGE_CURVE ( 'NONE', #593, #207, #380, .T. ) ;
#427 = DIRECTION ( 'NONE',  ( -1.000000000000000000, -0.0000000000000000000, -0.0000000000000000000 ) ) ;
#428 = CARTESIAN_POINT ( 'NONE',  ( 9.749999999999998224, -0.5000000000000000000, -3.799999999999999822 ) ) ;
#429 = VERTEX_POINT ( 'NONE', #885 ) ;
#430 = VECTOR ( 'NONE', #617, 1000.000000000000000 ) ;
#431 = VECTOR ( 'NONE', #737, 1000.000000000000000 ) ;
#432 = PLANE ( 'NONE',  #241 ) ;
#433 = LINE ( 'NONE', #59, #528 ) ;
#434 = ORIENTED_EDGE ( 'NONE', *, *, #324, .F. ) ;
#435 = CARTESIAN_POINT ( 'NONE',  ( 9.249999999999998224, -0.5000000000000000000, -3.799999999999998490 ) ) ;
#436 = EDGE_CURVE ( 'NONE', #129, #935, #667, .T. ) ;
#437 = CARTESIAN_POINT ( 'NONE',  ( -7.899999999999999467, 0.0000000000000000000, -2.500000000000000000 ) ) ;
#438 = ORIENTED_EDGE ( 'NONE', *, *, #177, .T. ) ;
#439 = VERTEX_POINT ( 'NONE', #309 ) ;
#440 = PERSON_AND_ORGANIZATION ( #53, #602 ) ;
#441 = LINE ( 'NONE', #878, #686 ) ;
#442 = CARTESIAN_POINT ( 'NONE',  ( 9.250000000000001776, 0.0000000000000000000, -3.799999999999999822 ) ) ;
#443 = DIRECTION ( 'NONE',  ( 1.000000000000000000, 0.0000000000000000000, 0.0000000000000000000 ) ) ;
#444 = EDGE_LOOP ( 'NONE', ( #396, #354, #18, #388 ) ) ;
#445 = APPROVAL_DATE_TIME ( #292, #279 ) ;
#446 = VECTOR ( 'NONE', #278, 1000.000000000000000 ) ;
#447 = VECTOR ( 'NONE', #564, 1000.000000000000000 ) ;
#448 = CARTESIAN_POINT ( 'NONE',  ( 0.0000000000000000000, -3.700000000000000178, 0.0000000000000000000 ) ) ;
#449 = LOCAL_TIME ( 15, 14, 2.000000000000000000, #143 ) ;
#450 = ORIENTED_EDGE ( 'NONE', *, *, #15, .T. ) ;
#451 = ORIENTED_EDGE ( 'NONE', *, *, #138, .F. ) ;
#452 = APPROVAL_STATUS ( 'not_yet_approved' ) ;
#453 = CARTESIAN_POINT ( 'NONE',  ( 5.299999999999999822, -3.700000000000000178, -2.750000000000000444 ) ) ;
#454 = LINE ( 'NONE', #821, #182 ) ;
#455 = FACE_OUTER_BOUND ( 'NONE', #568, .T. ) ;
#456 = ORIENTED_EDGE ( 'NONE', *, *, #513, .T. ) ;
#457 = CARTESIAN_POINT ( 'NONE',  ( 0.0000000000000000000, 0.0000000000000000000, 0.0000000000000000000 ) ) ;
#458 = PRODUCT_DEFINITION ( 'UNKNOWN', '', #827, #751 ) ;
#459 = DIRECTION ( 'NONE',  ( 1.000000000000000000, 0.0000000000000000000, 0.0000000000000000000 ) ) ;
#460 = CARTESIAN_POINT ( 'NONE',  ( -9.249999999999998224, -0.5000000000000000000, -3.799999999999999822 ) ) ;
#461 = VERTEX_POINT ( 'NONE', #895 ) ;
#462 = VECTOR ( 'NONE', #879, 1000.000000000000000 ) ;
#463 = EDGE_CURVE ( 'NONE', #307, #663, #89, .T. ) ;
#464 = CARTESIAN_POINT ( 'NONE',  ( -5.359999999999999432, -3.700000000000000178, -2.750000000000000444 ) ) ;
#465 = VECTOR ( 'NONE', #707, 1000.000000000000000 ) ;
#466 = EDGE_LOOP ( 'NONE', ( #787, #517, #819, #856 ) ) ;
#467 = ORIENTED_EDGE ( 'NONE', *, *, #483, .T. ) ;
#468 = CARTESIAN_POINT ( 'NONE',  ( -5.359999999999999432, -3.700000000000000178, -2.500000000000000000 ) ) ;
#469 = EDGE_CURVE ( 'NONE', #760, #412, #230, .T. ) ;
#470 = DIRECTION ( 'NONE',  ( -1.000000000000000000, 0.0000000000000000000, -0.0000000000000000000 ) ) ;
#471 = ORIENTED_EDGE ( 'NONE', *, *, #352, .T. ) ;
#472 = FACE_BOUND ( 'NONE', #676, .T. ) ;
#473 = DIRECTION ( 'NONE',  ( 0.0000000000000000000, -0.0000000000000000000, -1.000000000000000000 ) ) ;
#474 = LINE ( 'NONE', #399, #671 ) ;
#475 = ORIENTED_EDGE ( 'NONE', *, *, #898, .T. ) ;
#476 = EDGE_CURVE ( 'NONE', #370, #540, #159, .T. ) ;
#477 = FACE_BOUND ( 'NONE', #669, .T. ) ;
#478 = LINE ( 'NONE', #691, #368 ) ;
#479 = DIRECTION ( 'NONE',  ( -4.565061778886335030E-16, -0.0000000000000000000, 1.000000000000000000 ) ) ;
#480 = VECTOR ( 'NONE', #732, 1000.000000000000000 ) ;
#481 = AXIS2_PLACEMENT_3D ( 'NONE', #457, #286, #600 ) ;
#482 = ORIENTED_EDGE ( 'NONE', *, *, #620, .T. ) ;
#483 = EDGE_CURVE ( 'NONE', #73, #181, #454, .T. ) ;
#484 = PLANE ( 'NONE',  #270 ) ;
#485 = CARTESIAN_POINT ( 'NONE',  ( 4.800000000000000711, -3.700000000000000178, -2.750000000000000444 ) ) ;
#486 = CARTESIAN_POINT ( 'NONE',  ( -9.250000000000001776, 0.0000000000000000000, 3.799999999999999822 ) ) ;
#487 = EDGE_LOOP ( 'NONE', ( #695, #914, #502, #208 ) ) ;
#488 =( LENGTH_UNIT ( ) NAMED_UNIT ( * ) SI_UNIT ( .MILLI., .METRE. ) );
#489 = CARTESIAN_POINT ( 'NONE',  ( 4.800000000000000711, -3.700000000000000178, -2.500000000000000000 ) ) ;
#490 = CARTESIAN_POINT ( 'NONE',  ( -9.250000000000001776, 0.0000000000000000000, 3.799999999999999822 ) ) ;
#491 = ORIENTED_EDGE ( 'NONE', *, *, #66, .T. ) ;
#492 = CARTESIAN_POINT ( 'NONE',  ( -0.2799999999999998601, 0.0000000000000000000, -2.750000000000000444 ) ) ;
#493 = DIRECTION ( 'NONE',  ( 0.0000000000000000000, 0.0000000000000000000, -1.000000000000000000 ) ) ;
#494 = EDGE_CURVE ( 'NONE', #723, #796, #168, .T. ) ;
#495 = CARTESIAN_POINT ( 'NONE',  ( -4.860000000000000320, -3.700000000000000178, -2.500000000000000000 ) ) ;
#496 = ORIENTED_EDGE ( 'NONE', *, *, #755, .F. ) ;
#497 = AXIS2_PLACEMENT_3D ( 'NONE', #357, #868, #637 ) ;
#498 = VECTOR ( 'NONE', #884, 1000.000000000000000 ) ;
#499 = DIRECTION ( 'NONE',  ( -3.469446951953611033E-15, 0.0000000000000000000, 1.000000000000000000 ) ) ;
#500 = CARTESIAN_POINT ( 'NONE',  ( -7.400000000000000355, -3.700000000000000178, -2.500000000000000000 ) ) ;
#501 = ADVANCED_FACE ( 'NONE', ( #533 ), #21, .F. ) ;
#502 = ORIENTED_EDGE ( 'NONE', *, *, #426, .T. ) ;
#503 = FACE_OUTER_BOUND ( 'NONE', #246, .T. ) ;
#504 = FACE_OUTER_BOUND ( 'NONE', #466, .T. ) ;
#505 = CARTESIAN_POINT ( 'NONE',  ( -5.359999999999999432, 0.0000000000000000000, -2.500000000000000000 ) ) ;
#506 = ORIENTED_EDGE ( 'NONE', *, *, #805, .T. ) ;
#507 = EDGE_CURVE ( 'NONE', #307, #370, #289, .T. ) ;
#508 = CARTESIAN_POINT ( 'NONE',  ( -9.250000000000001776, -0.5000000000000000000, 3.799999999999999822 ) ) ;
#509 = CARTESIAN_POINT ( 'NONE',  ( -7.899999999999999467, -3.700000000000000178, -2.500000000000000000 ) ) ;
#510 = VERTEX_POINT ( 'NONE', #442 ) ;
#511 = DATE_AND_TIME ( #19, #449 ) ;
#512 = VECTOR ( 'NONE', #743, 1000.000000000000000 ) ;
#513 = EDGE_CURVE ( 'NONE', #370, #359, #726, .T. ) ;
#514 = AXIS2_PLACEMENT_3D ( 'NONE', #262, #561, #706 ) ;
#515 = LINE ( 'NONE', #210, #932 ) ;
#516 = ORIENTED_EDGE ( 'NONE', *, *, #596, .T. ) ;
#517 = ORIENTED_EDGE ( 'NONE', *, *, #37, .T. ) ;
#518 = LINE ( 'NONE', #661, #775 ) ;
#519 = PLANE ( 'NONE',  #761 ) ;
#520 = CARTESIAN_POINT ( 'NONE',  ( -9.750000000000001776, 9.700000000000001066, -3.799999999999999822 ) ) ;
#521 = DATE_AND_TIME ( #735, #272 ) ;
#522 = DIRECTION ( 'NONE',  ( -2.282530889443167515E-16, 0.0000000000000000000, -1.000000000000000000 ) ) ;
#523 = DIRECTION ( 'NONE',  ( -0.0000000000000000000, 0.0000000000000000000, 1.000000000000000000 ) ) ;
#524 = ADVANCED_FACE ( 'NONE', ( #552 ), #48, .F. ) ;
#525 = CARTESIAN_POINT ( 'NONE',  ( -5.359999999999999432, 0.0000000000000000000, -2.500000000000000000 ) ) ;
#526 = ORIENTED_EDGE ( 'NONE', *, *, #759, .T. ) ;
#527 = PERSON_AND_ORGANIZATION_ROLE ( 'design_owner' ) ;
#528 = VECTOR ( 'NONE', #860, 1000.000000000000000 ) ;
#529 = ORIENTED_EDGE ( 'NONE', *, *, #37, .F. ) ;
#530 = ADVANCED_FACE ( 'NONE', ( #328 ), #325, .F. ) ;
#531 = ORIENTED_EDGE ( 'NONE', *, *, #315, .T. ) ;
#532 = DATE_AND_TIME ( #664, #418 ) ;
#533 = FACE_OUTER_BOUND ( 'NONE', #578, .T. ) ;
#534 = LINE ( 'NONE', #219, #569 ) ;
#535 = ORIENTED_EDGE ( 'NONE', *, *, #742, .F. ) ;
#536 = ADVANCED_FACE ( 'NONE', ( #107 ), #333, .F. ) ;
#537 = CARTESIAN_POINT ( 'NONE',  ( 4.800000000000000711, -3.700000000000000178, -2.750000000000000444 ) ) ;
#538 = DIRECTION ( 'NONE',  ( 1.000000000000000000, 0.0000000000000000000, 0.0000000000000000000 ) ) ;
#539 = FACE_OUTER_BOUND ( 'NONE', #623, .T. ) ;
#540 = VERTEX_POINT ( 'NONE', #464 ) ;
#541 = EDGE_CURVE ( 'NONE', #136, #544, #542, .T. ) ;
#542 = LINE ( 'NONE', #252, #903 ) ;
#543 = DIRECTION ( 'NONE',  ( -0.0000000000000000000, -1.000000000000000000, -0.0000000000000000000 ) ) ;
#544 = VERTEX_POINT ( 'NONE', #317 ) ;
#545 = CARTESIAN_POINT ( 'NONE',  ( 4.800000000000000711, -3.700000000000000178, -2.750000000000000444 ) ) ;
#546 = CARTESIAN_POINT ( 'NONE',  ( -0.2799999999999998601, -3.700000000000000178, -2.500000000000000000 ) ) ;
#547 = ORIENTED_EDGE ( 'NONE', *, *, #865, .F. ) ;
#548 = LINE ( 'NONE', #485, #155 ) ;
#549 = DIRECTION ( 'NONE',  ( -0.0000000000000000000, 1.000000000000000000, -0.0000000000000000000 ) ) ;
#550 = APPROVAL ( #14, 'UNSPECIFIED' ) ;
#551 = ORIENTED_EDGE ( 'NONE', *, *, #476, .F. ) ;
#552 = FACE_OUTER_BOUND ( 'NONE', #589, .T. ) ;
#553 = CARTESIAN_POINT ( 'NONE',  ( -7.399999999999999467, 0.0000000000000000000, -2.750000000000000444 ) ) ;
#554 = AXIS2_PLACEMENT_3D ( 'NONE', #673, #523, #459 ) ;
#555 = ORIENTED_EDGE ( 'NONE', *, *, #841, .F. ) ;
#556 = LINE ( 'NONE', #926, #447 ) ;
#557 = DIRECTION ( 'NONE',  ( 1.000000000000000000, 0.0000000000000000000, 0.0000000000000000000 ) ) ;
#558 = DIRECTION ( 'NONE',  ( 0.0000000000000000000, 1.000000000000000000, 0.0000000000000000000 ) ) ;
#559 = EDGE_LOOP ( 'NONE', ( #178, #882, #451, #196 ) ) ;
#560 = EDGE_CURVE ( 'NONE', #228, #415, #748, .T. ) ;
#561 = DIRECTION ( 'NONE',  ( -1.000000000000000000, 0.0000000000000000000, -3.469446951953611033E-15 ) ) ;
#562 = DIRECTION ( 'NONE',  ( -0.0000000000000000000, -1.000000000000000000, -0.0000000000000000000 ) ) ;
#563 = ORIENTED_EDGE ( 'NONE', *, *, #20, .F. ) ;
#564 = DIRECTION ( 'NONE',  ( -1.000000000000000000, 0.0000000000000000000, 6.938893903907198401E-15 ) ) ;
#565 = EDGE_CURVE ( 'NONE', #412, #157, #850, .T. ) ;
#566 = DIRECTION ( 'NONE',  ( -1.000000000000000000, 0.0000000000000000000, -3.469446951953611033E-15 ) ) ;
#567 = LINE ( 'NONE', #130, #113 ) ;
#568 = EDGE_LOOP ( 'NONE', ( #371, #311, #301, #251 ) ) ;
#569 = VECTOR ( 'NONE', #27, 1000.000000000000000 ) ;
#570 = VECTOR ( 'NONE', #427, 1000.000000000000000 ) ;
#571 = CARTESIAN_POINT ( 'NONE',  ( -9.250000000000001776, -0.5000000000000000000, 3.799999999999999822 ) ) ;
#572 = LINE ( 'NONE', #863, #876 ) ;
#573 = LINE ( 'NONE', #864, #642 ) ;
#574 = ADVANCED_FACE ( 'NONE', ( #102 ), #184, .F. ) ;
#575 = ORIENTED_EDGE ( 'NONE', *, *, #315, .F. ) ;
#576 = CARTESIAN_POINT ( 'NONE',  ( -5.359999999999999432, 0.0000000000000000000, -2.750000000000000444 ) ) ;
#577 = CARTESIAN_POINT ( 'NONE',  ( -0.2799999999999998601, -3.700000000000000178, -2.500000000000000000 ) ) ;
#578 = EDGE_LOOP ( 'NONE', ( #790, #86, #693, #336 ) ) ;
#579 = ADVANCED_FACE ( 'NONE', ( #833 ), #765, .T. ) ;
#580 = APPLICATION_PROTOCOL_DEFINITION ( 'international standard', 'config_control_design', 1994, #588 ) ;
#581 = LINE ( 'NONE', #271, #386 ) ;
#582 = DIRECTION ( 'NONE',  ( -3.469446951953611033E-15, -0.0000000000000000000, 1.000000000000000000 ) ) ;
#583 = ORIENTED_EDGE ( 'NONE', *, *, #713, .F. ) ;
#584 = AXIS2_PLACEMENT_3D ( 'NONE', #779, #344, #140 ) ;
#585 = VECTOR ( 'NONE', #829, 1000.000000000000000 ) ;
#586 = CARTESIAN_POINT ( 'NONE',  ( -5.359999999999999432, -3.700000000000000178, -2.500000000000000000 ) ) ;
#587 = LINE ( 'NONE', #12, #124 ) ;
#588 = APPLICATION_CONTEXT ( 'configuration controlled 3d designs of mechanical parts and assemblies' ) ;
#589 = EDGE_LOOP ( 'NONE', ( #491, #547, #551, #456 ) ) ;
#590 = COORDINATED_UNIVERSAL_TIME_OFFSET ( 8, 0, .AHEAD. ) ;
#591 = CARTESIAN_POINT ( 'NONE',  ( -0.2799999999999998601, 0.0000000000000000000, -2.500000000000000000 ) ) ;
#592 = ORIENTED_EDGE ( 'NONE', *, *, #610, .T. ) ;
#593 = VERTEX_POINT ( 'NONE', #29 ) ;
#594 = PERSON_AND_ORGANIZATION ( #53, #602 ) ;
#595 = LINE ( 'NONE', #670, #498 ) ;
#596 = EDGE_CURVE ( 'NONE', #376, #136, #757, .T. ) ;
#597 = CARTESIAN_POINT ( 'NONE',  ( 4.800000000000000711, -3.700000000000000178, -2.500000000000000000 ) ) ;
#598 = PLANE ( 'NONE',  #773 ) ;
#599 = VERTEX_POINT ( 'NONE', #398 ) ;
#600 = DIRECTION ( 'NONE',  ( 1.000000000000000000, 0.0000000000000000000, 0.0000000000000000000 ) ) ;
#601 = AXIS2_PLACEMENT_3D ( 'NONE', #622, #330, #626 ) ;
#602 = ORGANIZATION ( 'UNSPECIFIED', 'UNSPECIFIED', '' ) ;
#603 = DIRECTION ( 'NONE',  ( -0.0000000000000000000, 1.000000000000000000, -0.0000000000000000000 ) ) ;
#604 = PLANE ( 'NONE',  #23 ) ;
#605 = EDGE_CURVE ( 'NONE', #837, #641, #548, .T. ) ;
#606 = ORIENTED_EDGE ( 'NONE', *, *, #610, .F. ) ;
#607 = CARTESIAN_POINT ( 'NONE',  ( 9.749999999999998224, 9.700000000000001066, -3.799999999999999822 ) ) ;
#608 = FACE_OUTER_BOUND ( 'NONE', #64, .T. ) ;
#609 = DIRECTION ( 'NONE',  ( 1.000000000000000000, 0.0000000000000000000, -0.0000000000000000000 ) ) ;
#610 = EDGE_CURVE ( 'NONE', #627, #3, #478, .T. ) ;
#611 = VERTEX_POINT ( 'NONE', #312 ) ;
#612 = CARTESIAN_POINT ( 'NONE',  ( -0.2799999999999998601, -3.700000000000000178, -2.500000000000000000 ) ) ;
#613 = ORIENTED_EDGE ( 'NONE', *, *, #463, .T. ) ;
#614 = LINE ( 'NONE', #492, #701 ) ;
#615 = VECTOR ( 'NONE', #687, 1000.000000000000000 ) ;
#616 = DIRECTION ( 'NONE',  ( 1.000000000000000000, 0.0000000000000000000, 0.0000000000000000000 ) ) ;
#617 = DIRECTION ( 'NONE',  ( -3.469446951953611033E-15, -0.0000000000000000000, 1.000000000000000000 ) ) ;
#618 = ORIENTED_EDGE ( 'NONE', *, *, #167, .T. ) ;
#619 = DIRECTION ( 'NONE',  ( -0.0000000000000000000, 1.000000000000000000, -0.0000000000000000000 ) ) ;
#620 = EDGE_CURVE ( 'NONE', #131, #544, #139, .T. ) ;
#621 = DIRECTION ( 'NONE',  ( -1.000000000000000000, 0.0000000000000000000, -3.469446951953611033E-15 ) ) ;
#622 = CARTESIAN_POINT ( 'NONE',  ( -9.750000000000001776, 9.700000000000001066, -3.799999999999999822 ) ) ;
#623 = EDGE_LOOP ( 'NONE', ( #745, #756, #634, #861 ) ) ;
#624 = DIRECTION ( 'NONE',  ( -0.0000000000000000000, 0.0000000000000000000, 1.000000000000000000 ) ) ;
#625 = EDGE_CURVE ( 'NONE', #724, #611, #778, .T. ) ;
#626 = DIRECTION ( 'NONE',  ( 1.000000000000000000, 0.0000000000000000000, -0.0000000000000000000 ) ) ;
#627 = VERTEX_POINT ( 'NONE', #718 ) ;
#628 = ORIENTED_EDGE ( 'NONE', *, *, #232, .F. ) ;
#629 = DIRECTION ( 'NONE',  ( 0.0000000000000000000, -0.0000000000000000000, -1.000000000000000000 ) ) ;
#630 = VECTOR ( 'NONE', #782, 1000.000000000000000 ) ;
#631 = VECTOR ( 'NONE', #753, 1000.000000000000000 ) ;
#632 = ORIENTED_EDGE ( 'NONE', *, *, #847, .F. ) ;
#633 = ADVANCED_FACE ( 'NONE', ( #413 ), #923, .F. ) ;
#634 = ORIENTED_EDGE ( 'NONE', *, *, #346, .F. ) ;
#635 = ADVANCED_FACE ( 'NONE', ( #854 ), #193, .F. ) ;
#636 = DIRECTION ( 'NONE',  ( -0.0000000000000000000, 1.000000000000000000, -0.0000000000000000000 ) ) ;
#637 = DIRECTION ( 'NONE',  ( -1.000000000000000000, 0.0000000000000000000, -0.0000000000000000000 ) ) ;
#638 = ORIENTED_EDGE ( 'NONE', *, *, #660, .T. ) ;
#639 = LINE ( 'NONE', #936, #809 ) ;
#640 = LINE ( 'NONE', #340, #446 ) ;
#641 = VERTEX_POINT ( 'NONE', #937 ) ;
#642 = VECTOR ( 'NONE', #786, 1000.000000000000000 ) ;
#643 = VECTOR ( 'NONE', #636, 1000.000000000000000 ) ;
#644 = CC_DESIGN_APPROVAL ( #550, ( #827 ) ) ;
#645 = EDGE_CURVE ( 'NONE', #341, #935, #58, .T. ) ;
#646 = ORIENTED_EDGE ( 'NONE', *, *, #363, .F. ) ;
#647 = MECHANICAL_CONTEXT ( 'NONE', #588, 'mechanical' ) ;
#648 = LINE ( 'NONE', #203, #728 ) ;
#649 = ORIENTED_EDGE ( 'NONE', *, *, #293, .F. ) ;
#650 = VERTEX_POINT ( 'NONE', #343 ) ;
#651 = PERSON_AND_ORGANIZATION ( #53, #602 ) ;
#652 = DIRECTION ( 'NONE',  ( 1.000000000000000000, 0.0000000000000000000, 0.0000000000000000000 ) ) ;
#653 = ORIENTED_EDGE ( 'NONE', *, *, #722, .T. ) ;
#654 = AXIS2_PLACEMENT_3D ( 'NONE', #231, #750, #375 ) ;
#655 = ADVANCED_FACE ( 'NONE', ( #710 ), #432, .F. ) ;
#656 = AXIS2_PLACEMENT_3D ( 'NONE', #911, #905, #473 ) ;
#657 = LINE ( 'NONE', #154, #269 ) ;
#658 = VERTEX_POINT ( 'NONE', #126 ) ;
#659 = DATE_AND_TIME ( #209, #290 ) ;
#660 = EDGE_CURVE ( 'NONE', #415, #510, #581, .T. ) ;
#661 = CARTESIAN_POINT ( 'NONE',  ( -7.899999999999999467, 0.0000000000000000000, -2.750000000000000444 ) ) ;
#662 = LINE ( 'NONE', #295, #99 ) ;
#663 = VERTEX_POINT ( 'NONE', #356 ) ;
#664 = CALENDAR_DATE ( 2020, 13, 11 ) ;
#665 = CARTESIAN_POINT ( 'NONE',  ( 4.800000000000000711, 0.0000000000000000000, -2.500000000000000000 ) ) ;
#666 = ADVANCED_FACE ( 'NONE', ( #927 ), #188, .F. ) ;
#667 = LINE ( 'NONE', #817, #67 ) ;
#668 = EDGE_LOOP ( 'NONE', ( #888, #161, #649, #516 ) ) ;
#669 = EDGE_LOOP ( 'NONE', ( #434, #740, #831, #535 ) ) ;
#670 = CARTESIAN_POINT ( 'NONE',  ( -9.250000000000001776, -0.5000000000000000000, 3.799999999999999822 ) ) ;
#671 = VECTOR ( 'NONE', #543, 1000.000000000000000 ) ;
#672 = VECTOR ( 'NONE', #867, 1000.000000000000000 ) ;
#673 = CARTESIAN_POINT ( 'NONE',  ( -7.899999999999999467, -3.700000000000000178, -2.750000000000000444 ) ) ;
#674 = EDGE_CURVE ( 'NONE', #544, #429, #572, .T. ) ;
#675 = LINE ( 'NONE', #880, #82 ) ;
#676 = EDGE_LOOP ( 'NONE', ( #729, #264, #348, #555 ) ) ;
#677 = DIRECTION ( 'NONE',  ( -2.282530889443167515E-16, -0.0000000000000000000, -1.000000000000000000 ) ) ;
#678 = CARTESIAN_POINT ( 'NONE',  ( -9.750000000000000000, 0.0000000000000000000, 3.799999999999999822 ) ) ;
#679 = PLANE ( 'NONE',  #654 ) ;
#680 = ORIENTED_EDGE ( 'NONE', *, *, #5, .T. ) ;
#681 = LINE ( 'NONE', #247, #934 ) ;
#682 = DIRECTION ( 'NONE',  ( -0.0000000000000000000, 1.000000000000000000, -0.0000000000000000000 ) ) ;
#683 = ORIENTED_EDGE ( 'NONE', *, *, #759, .F. ) ;
#684 = ADVANCED_FACE ( 'NONE', ( #504 ), #7, .T. ) ;
#685 = VECTOR ( 'NONE', #682, 1000.000000000000000 ) ;
#686 = VECTOR ( 'NONE', #214, 1000.000000000000000 ) ;
#687 = DIRECTION ( 'NONE',  ( 0.0000000000000000000, 0.0000000000000000000, -1.000000000000000000 ) ) ;
#688 = CC_DESIGN_APPROVAL ( #279, ( #458 ) ) ;
#689 = ORIENTED_EDGE ( 'NONE', *, *, #764, .F. ) ;
#690 = ADVANCED_FACE ( 'NONE', ( #164 ), #80, .F. ) ;
#691 = CARTESIAN_POINT ( 'NONE',  ( -9.750000000000001776, -0.5000000000000000000, -3.799999999999999822 ) ) ;
#692 = DIRECTION ( 'NONE',  ( -0.0000000000000000000, 0.0000000000000000000, 1.000000000000000000 ) ) ;
#693 = ORIENTED_EDGE ( 'NONE', *, *, #828, .F. ) ;
#694 = DIRECTION ( 'NONE',  ( 0.0000000000000000000, -0.0000000000000000000, 1.000000000000000000 ) ) ;
#695 = ORIENTED_EDGE ( 'NONE', *, *, #103, .T. ) ;
#696 = FACE_OUTER_BOUND ( 'NONE', #190, .T. ) ;
#697 = ORIENTED_EDGE ( 'NONE', *, *, #138, .T. ) ;
#698 = DIRECTION ( 'NONE',  ( -1.000000000000000000, 0.0000000000000000000, 0.0000000000000000000 ) ) ;
#699 = AXIS2_PLACEMENT_3D ( 'NONE', #405, #49, #470 ) ;
#700 = DIRECTION ( 'NONE',  ( -1.000000000000000000, -0.0000000000000000000, -0.0000000000000000000 ) ) ;
#701 = VECTOR ( 'NONE', #922, 1000.000000000000000 ) ;
#702 = CC_DESIGN_PERSON_AND_ORGANIZATION_ASSIGNMENT ( #651, #355, ( #458 ) ) ;
#703 = SECURITY_CLASSIFICATION ( '', '', #87 ) ;
#704 = ORIENTED_EDGE ( 'NONE', *, *, #167, .F. ) ;
#705 = LINE ( 'NONE', #777, #416 ) ;
#706 = DIRECTION ( 'NONE',  ( -3.469446951953611033E-15, 0.0000000000000000000, 1.000000000000000000 ) ) ;
#707 = DIRECTION ( 'NONE',  ( -4.565061778886335030E-16, -0.0000000000000000000, 1.000000000000000000 ) ) ;
#708 = EDGE_LOOP ( 'NONE', ( #118, #267, #632, #897 ) ) ;
#709 = PLANE ( 'NONE',  #844 ) ;
#710 = FACE_OUTER_BOUND ( 'NONE', #45, .T. ) ;
#711 = CARTESIAN_POINT ( 'NONE',  ( -9.250000000000001776, -0.5000000000000000000, 3.799999999999999822 ) ) ;
#712 = ORIENTED_EDGE ( 'NONE', *, *, #605, .T. ) ;
#713 = EDGE_CURVE ( 'NONE', #935, #663, #441, .T. ) ;
#714 = LINE ( 'NONE', #68, #224 ) ;
#715 = VERTEX_POINT ( 'NONE', #725 ) ;
#716 = VECTOR ( 'NONE', #94, 1000.000000000000000 ) ;
#717 = VECTOR ( 'NONE', #244, 1000.000000000000000 ) ;
#718 = CARTESIAN_POINT ( 'NONE',  ( -9.750000000000001776, -0.5000000000000000000, -3.799999999999999822 ) ) ;
#719 = CARTESIAN_POINT ( 'NONE',  ( -7.399999999999999467, -3.700000000000000178, -2.750000000000000444 ) ) ;
#720 = EDGE_LOOP ( 'NONE', ( #284, #332, #628, #800 ) ) ;
#721 = CARTESIAN_POINT ( 'NONE',  ( -9.750000000000000000, 9.700000000000001066, 3.799999999999999822 ) ) ;
#722 = EDGE_CURVE ( 'NONE', #200, #627, #366, .T. ) ;
#723 = VERTEX_POINT ( 'NONE', #802 ) ;
#724 = VERTEX_POINT ( 'NONE', #891 ) ;
#725 = CARTESIAN_POINT ( 'NONE',  ( 5.299999999999999822, -3.700000000000000178, -2.750000000000000444 ) ) ;
#726 = LINE ( 'NONE', #369, #51 ) ;
#727 = DIRECTION ( 'NONE',  ( -1.000000000000000000, 0.0000000000000000000, 2.282530889443167515E-16 ) ) ;
#728 = VECTOR ( 'NONE', #420, 1000.000000000000000 ) ;
#729 = ORIENTED_EDGE ( 'NONE', *, *, #565, .F. ) ;
#730 = PERSON_AND_ORGANIZATION_ROLE ( 'design_supplier' ) ;
#731 = VECTOR ( 'NONE', #677, 1000.000000000000000 ) ;
#732 = DIRECTION ( 'NONE',  ( -3.469446951953611033E-15, -0.0000000000000000000, 1.000000000000000000 ) ) ;
#733 = DIRECTION ( 'NONE',  ( -1.000000000000000000, -0.0000000000000000000, -0.0000000000000000000 ) ) ;
#734 = ORIENTED_EDGE ( 'NONE', *, *, #596, .F. ) ;
#735 = CALENDAR_DATE ( 2020, 13, 11 ) ;
#736 = EDGE_CURVE ( 'NONE', #715, #73, #158, .T. ) ;
#737 = DIRECTION ( 'NONE',  ( -0.0000000000000000000, 1.000000000000000000, -0.0000000000000000000 ) ) ;
#738 = PLANE ( 'NONE',  #887 ) ;
#739 = CARTESIAN_POINT ( 'NONE',  ( -9.249999999999998224, -0.5000000000000000000, -3.799999999999999822 ) ) ;
#740 = ORIENTED_EDGE ( 'NONE', *, *, #674, .F. ) ;
#741 = DIRECTION ( 'NONE',  ( -4.565061778886335030E-16, 0.0000000000000000000, 1.000000000000000000 ) ) ;
#742 = EDGE_CURVE ( 'NONE', #98, #136, #518, .T. ) ;
#743 = DIRECTION ( 'NONE',  ( -1.000000000000000000, -0.0000000000000000000, -0.0000000000000000000 ) ) ;
#744 = CARTESIAN_POINT ( 'NONE',  ( 5.299999999999999822, 0.0000000000000000000, -2.750000000000000444 ) ) ;
#745 = ORIENTED_EDGE ( 'NONE', *, *, #285, .T. ) ;
#746 = AXIS2_PLACEMENT_3D ( 'NONE', #334, #692, #920 ) ;
#747 = AXIS2_PLACEMENT_3D ( 'NONE', #265, #566, #499 ) ;
#748 = LINE ( 'NONE', #678, #585 ) ;
#749 = APPROVAL_PERSON_ORGANIZATION ( #297, #813, #302 ) ;
#750 = DIRECTION ( 'NONE',  ( 0.0000000000000000000, -1.000000000000000000, 0.0000000000000000000 ) ) ;
#751 = DESIGN_CONTEXT ( 'detailed design', #226, 'design' ) ;
#752 = ORIENTED_EDGE ( 'NONE', *, *, #834, .T. ) ;
#753 = DIRECTION ( 'NONE',  ( 1.000000000000000000, 0.0000000000000000000, 0.0000000000000000000 ) ) ;
#754 = PLANE ( 'NONE',  #746 ) ;
#755 = EDGE_CURVE ( 'NONE', #874, #228, #595, .T. ) ;
#756 = ORIENTED_EDGE ( 'NONE', *, *, #722, .F. ) ;
#757 = LINE ( 'NONE', #110, #171 ) ;
#758 = DIRECTION ( 'NONE',  ( 0.0000000000000000000, -0.0000000000000000000, 1.000000000000000000 ) ) ;
#759 = EDGE_CURVE ( 'NONE', #296, #510, #222, .T. ) ;
#760 = VERTEX_POINT ( 'NONE', #93 ) ;
#761 = AXIS2_PLACEMENT_3D ( 'NONE', #448, #16, #26 ) ;
#762 = LINE ( 'NONE', #111, #824 ) ;
#763 = ORIENTED_EDGE ( 'NONE', *, *, #329, .T. ) ;
#764 = EDGE_CURVE ( 'NONE', #658, #641, #378, .T. ) ;
#765 = PLANE ( 'NONE',  #656 ) ;
#766 = DIRECTION ( 'NONE',  ( -1.000000000000000000, -0.0000000000000000000, -0.0000000000000000000 ) ) ;
#767 = ORIENTED_EDGE ( 'NONE', *, *, #764, .T. ) ;
#768 = EDGE_CURVE ( 'NONE', #296, #390, #792, .T. ) ;
#769 = CARTESIAN_POINT ( 'NONE',  ( -7.899999999999999467, -3.700000000000000178, -2.750000000000000444 ) ) ;
#770 = ORIENTED_EDGE ( 'NONE', *, *, #249, .T. ) ;
#771 = ADVANCED_BREP_SHAPE_REPRESENTATION ( 'TMH Single Output', ( #397, #481 ), #890 ) ;
#772 = DIRECTION ( 'NONE',  ( -1.000000000000000000, 0.0000000000000000000, -0.0000000000000000000 ) ) ;
#773 = AXIS2_PLACEMENT_3D ( 'NONE', #812, #886, #30 ) ;
#774 = LINE ( 'NONE', #127, #858 ) ;
#775 = VECTOR ( 'NONE', #75, 1000.000000000000000 ) ;
#776 = EDGE_LOOP ( 'NONE', ( #450, #56, #921, #712 ) ) ;
#777 = CARTESIAN_POINT ( 'NONE',  ( -5.359999999999999432, -3.700000000000000178, -2.750000000000000444 ) ) ;
#778 = LINE ( 'NONE', #489, #570 ) ;
#779 = CARTESIAN_POINT ( 'NONE',  ( 0.0000000000000000000, -0.5000000000000000000, 0.0000000000000000000 ) ) ;
#780 = ORIENTED_EDGE ( 'NONE', *, *, #784, .T. ) ;
#781 = ADVANCED_FACE ( 'NONE', ( #41, #477, #825, #832, #472 ), #484, .F. ) ;
#782 = DIRECTION ( 'NONE',  ( -0.0000000000000000000, 1.000000000000000000, -0.0000000000000000000 ) ) ;
#783 = ORIENTED_EDGE ( 'NONE', *, *, #742, .T. ) ;
#784 = EDGE_CURVE ( 'NONE', #593, #650, #323, .T. ) ;
#785 = DIRECTION ( 'NONE',  ( -0.0000000000000000000, 1.000000000000000000, -0.0000000000000000000 ) ) ;
#786 = DIRECTION ( 'NONE',  ( -0.0000000000000000000, 1.000000000000000000, -0.0000000000000000000 ) ) ;
#787 = ORIENTED_EDGE ( 'NONE', *, *, #847, .T. ) ;
#788 = VECTOR ( 'NONE', #881, 1000.000000000000000 ) ;
#789 = AXIS2_PLACEMENT_3D ( 'NONE', #545, #624, #616 ) ;
#790 = ORIENTED_EDGE ( 'NONE', *, *, #841, .T. ) ;
#791 = DATE_TIME_ROLE ( 'classification_date' ) ;
#792 = LINE ( 'NONE', #435, #54 ) ;
#793 = EDGE_CURVE ( 'NONE', #540, #129, #681, .T. ) ;
#794 = DIRECTION ( 'NONE',  ( -1.000000000000000000, -0.0000000000000000000, -0.0000000000000000000 ) ) ;
#795 = ORIENTED_EDGE ( 'NONE', *, *, #494, .F. ) ;
#796 = VERTEX_POINT ( 'NONE', #106 ) ;
#797 = CC_DESIGN_PERSON_AND_ORGANIZATION_ASSIGNMENT ( #151, #229, ( #827 ) ) ;
#798 = DIRECTION ( 'NONE',  ( -3.469446951953611033E-15, -0.0000000000000000000, 1.000000000000000000 ) ) ;
#799 = CARTESIAN_POINT ( 'NONE',  ( -7.899999999999999467, 0.0000000000000000000, -2.750000000000000444 ) ) ;
#800 = ORIENTED_EDGE ( 'NONE', *, *, #436, .T. ) ;
#801 = APPROVAL_DATE_TIME ( #511, #550 ) ;
#802 = CARTESIAN_POINT ( 'NONE',  ( -9.750000000000000000, 9.700000000000001066, 3.799999999999999822 ) ) ;
#803 = CARTESIAN_POINT ( 'NONE',  ( -0.2799999999999998601, -3.700000000000000178, -2.750000000000000444 ) ) ;
#804 = DIRECTION ( 'NONE',  ( 1.000000000000000000, 0.0000000000000000000, 0.0000000000000000000 ) ) ;
#805 = EDGE_CURVE ( 'NONE', #796, #120, #114, .T. ) ;
#806 = AXIS2_PLACEMENT_3D ( 'NONE', #851, #189, #629 ) ;
#807 = ORIENTED_EDGE ( 'NONE', *, *, #298, .T. ) ;
#808 = CALENDAR_DATE ( 2020, 13, 11 ) ;
#809 = VECTOR ( 'NONE', #848, 1000.000000000000000 ) ;
#810 = DIRECTION ( 'NONE',  ( -1.000000000000000000, 0.0000000000000000000, -4.565061778886335030E-16 ) ) ;
#811 = CARTESIAN_POINT ( 'NONE',  ( -0.2799999999999998601, 0.0000000000000000000, -2.500000000000000000 ) ) ;
#812 = CARTESIAN_POINT ( 'NONE',  ( -0.2799999999999998601, -3.700000000000000178, -2.500000000000000000 ) ) ;
#813 = APPROVAL ( #452, 'UNSPECIFIED' ) ;
#814 = ORIENTED_EDGE ( 'NONE', *, *, #645, .F. ) ;
#815 = APPROVAL_STATUS ( 'not_yet_approved' ) ;
#816 = DIRECTION ( 'NONE',  ( 0.0000000000000000000, -0.0000000000000000000, -1.000000000000000000 ) ) ;
#817 = CARTESIAN_POINT ( 'NONE',  ( -4.859999999999999432, -3.700000000000000178, -2.750000000000000444 ) ) ;
#818 = FACE_OUTER_BOUND ( 'NONE', #444, .T. ) ;
#819 = ORIENTED_EDGE ( 'NONE', *, *, #293, .T. ) ;
#820 = CARTESIAN_POINT ( 'NONE',  ( 4.800000000000000711, -3.700000000000000178, -2.750000000000000444 ) ) ;
#821 = CARTESIAN_POINT ( 'NONE',  ( 5.299999999999998934, 0.0000000000000000000, -2.500000000000000000 ) ) ;
#822 = EDGE_LOOP ( 'NONE', ( #767, #291, #60, #438 ) ) ;
#823 = ORIENTED_EDGE ( 'NONE', *, *, #2, .T. ) ;
#824 = VECTOR ( 'NONE', #700, 1000.000000000000000 ) ;
#825 = FACE_OUTER_BOUND ( 'NONE', #559, .T. ) ;
#826 = AXIS2_PLACEMENT_3D ( 'NONE', #342, #256, #261 ) ;
#827 = PRODUCT_DEFINITION_FORMATION_WITH_SPECIFIED_SOURCE ( 'ANY', '', #417, .NOT_KNOWN. ) ;
#828 = EDGE_CURVE ( 'NONE', #421, #593, #894, .T. ) ;
#829 = DIRECTION ( 'NONE',  ( 1.000000000000000000, 0.0000000000000000000, 0.0000000000000000000 ) ) ;
#830 = LINE ( 'NONE', #769, #685 ) ;
#831 = ORIENTED_EDGE ( 'NONE', *, *, #541, .F. ) ;
#832 = FACE_BOUND ( 'NONE', #901, .T. ) ;
#833 = FACE_OUTER_BOUND ( 'NONE', #869, .T. ) ;
#834 = EDGE_CURVE ( 'NONE', #837, #715, #393, .T. ) ;
#835 = LINE ( 'NONE', #410, #875 ) ;
#836 = PRODUCT_DEFINITION_SHAPE ( 'NONE', 'NONE',  #458 ) ;
#837 = VERTEX_POINT ( 'NONE', #820 ) ;
#838 = DIRECTION ( 'NONE',  ( -0.0000000000000000000, 1.000000000000000000, -0.0000000000000000000 ) ) ;
#839 = CARTESIAN_POINT ( 'NONE',  ( -7.400000000000000355, -3.700000000000000178, -2.500000000000000000 ) ) ;
#840 = ORIENTED_EDGE ( 'NONE', *, *, #476, .T. ) ;
#841 = EDGE_CURVE ( 'NONE', #157, #650, #614, .T. ) ;
#842 = AXIS2_PLACEMENT_3D ( 'NONE', #97, #361, #652 ) ;
#843 = DIRECTION ( 'NONE',  ( 0.0000000000000000000, 0.0000000000000000000, -1.000000000000000000 ) ) ;
#844 = AXIS2_PLACEMENT_3D ( 'NONE', #915, #197, #276 ) ;
#845 = CARTESIAN_POINT ( 'NONE',  ( -0.2799999999999998601, 0.0000000000000000000, -2.750000000000000444 ) ) ;
#846 = ORIENTED_EDGE ( 'NONE', *, *, #358, .T. ) ;
#847 = EDGE_CURVE ( 'NONE', #599, #461, #862, .T. ) ;
#848 = DIRECTION ( 'NONE',  ( 2.282530889443167515E-16, 0.0000000000000000000, 1.000000000000000000 ) ) ;
#849 = ORIENTED_EDGE ( 'NONE', *, *, #215, .F. ) ;
#850 = LINE ( 'NONE', #257, #717 ) ;
#851 = CARTESIAN_POINT ( 'NONE',  ( 0.0000000000000000000, -3.700000000000000178, 0.0000000000000000000 ) ) ;
#852 = EDGE_LOOP ( 'NONE', ( #392, #40, #69, #780 ) ) ;
#853 = DIRECTION ( 'NONE',  ( 0.0000000000000000000, 0.0000000000000000000, -1.000000000000000000 ) ) ;
#854 = FACE_OUTER_BOUND ( 'NONE', #150, .T. ) ;
#855 = FACE_OUTER_BOUND ( 'NONE', #28, .T. ) ;
#856 = ORIENTED_EDGE ( 'NONE', *, *, #148, .T. ) ;
#857 = LINE ( 'NONE', #571, #401 ) ;
#858 = VECTOR ( 'NONE', #794, 1000.000000000000000 ) ;
#859 = ADVANCED_FACE ( 'NONE', ( #201 ), #709, .F. ) ;
#860 = DIRECTION ( 'NONE',  ( -0.0000000000000000000, 1.000000000000000000, -0.0000000000000000000 ) ) ;
#861 = ORIENTED_EDGE ( 'NONE', *, *, #898, .F. ) ;
#862 = LINE ( 'NONE', #268, #288 ) ;
#863 = CARTESIAN_POINT ( 'NONE',  ( -7.899999999999999467, 0.0000000000000000000, -2.500000000000000000 ) ) ;
#864 = CARTESIAN_POINT ( 'NONE',  ( 0.2199999999999988354, -3.700000000000000178, -2.500000000000000000 ) ) ;
#865 = EDGE_CURVE ( 'NONE', #540, #341, #705, .T. ) ;
#866 = ORIENTED_EDGE ( 'NONE', *, *, #625, .F. ) ;
#867 = DIRECTION ( 'NONE',  ( 1.000000000000000000, 0.0000000000000000000, 0.0000000000000000000 ) ) ;
#868 = DIRECTION ( 'NONE',  ( 0.0000000000000000000, 0.0000000000000000000, -1.000000000000000000 ) ) ;
#869 = EDGE_LOOP ( 'NONE', ( #893, #471, #100, #91 ) ) ;
#870 = ADVANCED_FACE ( 'NONE', ( #503 ), #187, .F. ) ;
#871 = PERSON_AND_ORGANIZATION ( #53, #602 ) ;
#872 = DIRECTION ( 'NONE',  ( 0.0000000000000000000, 0.0000000000000000000, -1.000000000000000000 ) ) ;
#873 = PLANE ( 'NONE',  #497 ) ;
#874 = VERTEX_POINT ( 'NONE', #508 ) ;
#875 = VECTOR ( 'NONE', #313, 1000.000000000000000 ) ;
#876 = VECTOR ( 'NONE', #202, 1000.000000000000000 ) ;
#877 = EDGE_CURVE ( 'NONE', #105, #32, #556, .T. ) ;
#878 = CARTESIAN_POINT ( 'NONE',  ( -4.860000000000000320, 0.0000000000000000000, -2.500000000000000000 ) ) ;
#879 = DIRECTION ( 'NONE',  ( -1.000000000000000000, -0.0000000000000000000, -0.0000000000000000000 ) ) ;
#880 = CARTESIAN_POINT ( 'NONE',  ( 4.800000000000000711, 0.0000000000000000000, -2.750000000000000444 ) ) ;
#881 = DIRECTION ( 'NONE',  ( -0.0000000000000000000, 1.000000000000000000, -0.0000000000000000000 ) ) ;
#882 = ORIENTED_EDGE ( 'NONE', *, *, #560, .F. ) ;
#883 =( NAMED_UNIT ( * ) SI_UNIT ( $, .STERADIAN. ) SOLID_ANGLE_UNIT ( ) );
#884 = DIRECTION ( 'NONE',  ( -0.0000000000000000000, 1.000000000000000000, -0.0000000000000000000 ) ) ;
#885 = CARTESIAN_POINT ( 'NONE',  ( -7.899999999999999467, 0.0000000000000000000, -2.500000000000000000 ) ) ;
#886 = DIRECTION ( 'NONE',  ( 1.000000000000000000, 0.0000000000000000000, 0.0000000000000000000 ) ) ;
#887 = AXIS2_PLACEMENT_3D ( 'NONE', #597, #538, #81 ) ;
#888 = ORIENTED_EDGE ( 'NONE', *, *, #541, .T. ) ;
#889 = DATE_TIME_ROLE ( 'creation_date' ) ;
#890 =( GEOMETRIC_REPRESENTATION_CONTEXT ( 3 ) GLOBAL_UNCERTAINTY_ASSIGNED_CONTEXT ( ( #195 ) ) GLOBAL_UNIT_ASSIGNED_CONTEXT ( ( #488, #137, #883 ) ) REPRESENTATION_CONTEXT ( 'NONE', 'WORKASPACE' ) );
#891 = CARTESIAN_POINT ( 'NONE',  ( 5.299999999999998934, -3.700000000000000178, -2.500000000000000000 ) ) ;
#892 = DIRECTION ( 'NONE',  ( 1.000000000000000000, 0.0000000000000000000, -2.282530889443167515E-16 ) ) ;
#893 = ORIENTED_EDGE ( 'NONE', *, *, #768, .T. ) ;
#894 = LINE ( 'NONE', #234, #631 ) ;
#895 = CARTESIAN_POINT ( 'NONE',  ( -7.899999999999999467, -3.700000000000000178, -2.750000000000000444 ) ) ;
#896 = DIRECTION ( 'NONE',  ( -3.469446951953611033E-15, -0.0000000000000000000, 1.000000000000000000 ) ) ;
#897 = ORIENTED_EDGE ( 'NONE', *, *, #363, .T. ) ;
#898 = EDGE_CURVE ( 'NONE', #382, #723, #639, .T. ) ;
#899 = DIRECTION ( 'NONE',  ( -3.469446951953611033E-15, 0.0000000000000000000, 1.000000000000000000 ) ) ;
#900 = CARTESIAN_POINT ( 'NONE',  ( -9.750000000000000000, -0.5000000000000000000, 3.799999999999999822 ) ) ;
#901 = EDGE_LOOP ( 'NONE', ( #133, #563, #583, #814 ) ) ;
#902 = AXIS2_PLACEMENT_3D ( 'NONE', #216, #727, #225 ) ;
#903 = VECTOR ( 'NONE', #918, 1000.000000000000000 ) ;
#904 = PRODUCT_RELATED_PRODUCT_CATEGORY ( 'detail', '', ( #417 ) ) ;
#905 = DIRECTION ( 'NONE',  ( 0.0000000000000000000, -1.000000000000000000, 0.0000000000000000000 ) ) ;
#906 = FACE_OUTER_BOUND ( 'NONE', #141, .T. ) ;
#907 = ORIENTED_EDGE ( 'NONE', *, *, #877, .F. ) ;
#908 = DIRECTION ( 'NONE',  ( 1.000000000000000000, 0.0000000000000000000, -2.602085213965208275E-15 ) ) ;
#909 = CARTESIAN_POINT ( 'NONE',  ( 9.750000000000000000, -0.5000000000000000000, 3.799999999999999822 ) ) ;
#910 = ORIENTED_EDGE ( 'NONE', *, *, #931, .F. ) ;
#911 = CARTESIAN_POINT ( 'NONE',  ( 0.0000000000000000000, -0.5000000000000000000, 0.0000000000000000000 ) ) ;
#912 = FACE_OUTER_BOUND ( 'NONE', #50, .T. ) ;
#913 = EDGE_CURVE ( 'NONE', #874, #200, #857, .T. ) ;
#914 = ORIENTED_EDGE ( 'NONE', *, *, #828, .T. ) ;
#915 = CARTESIAN_POINT ( 'NONE',  ( -7.899999999999999467, -3.700000000000000178, -2.500000000000000000 ) ) ;
#916 = ORIENTED_EDGE ( 'NONE', *, *, #436, .F. ) ;
#917 = VECTOR ( 'NONE', #479, 1000.000000000000000 ) ;
#918 = DIRECTION ( 'NONE',  ( -3.469446951953611033E-15, -0.0000000000000000000, 1.000000000000000000 ) ) ;
#919 = AXIS2_PLACEMENT_3D ( 'NONE', #294, #810, #741 ) ;
#920 = DIRECTION ( 'NONE',  ( 1.000000000000000000, 0.0000000000000000000, 0.0000000000000000000 ) ) ;
#921 = ORIENTED_EDGE ( 'NONE', *, *, #834, .F. ) ;
#922 = DIRECTION ( 'NONE',  ( 1.000000000000000000, 0.0000000000000000000, 0.0000000000000000000 ) ) ;
#923 = PLANE ( 'NONE',  #514 ) ;
#924 = LINE ( 'NONE', #199, #287 ) ;
#925 = ORIENTED_EDGE ( 'NONE', *, *, #15, .F. ) ;
#926 = CARTESIAN_POINT ( 'NONE',  ( 9.750000000000000000, -0.5000000000000000000, 3.799999999999999822 ) ) ;
#927 = FACE_OUTER_BOUND ( 'NONE', #852, .T. ) ;
#928 = CARTESIAN_POINT ( 'NONE',  ( -5.359999999999999432, 0.0000000000000000000, -2.750000000000000444 ) ) ;
#929 = ORIENTED_EDGE ( 'NONE', *, *, #513, .F. ) ;
#930 = LINE ( 'NONE', #191, #10 ) ;
#931 = EDGE_CURVE ( 'NONE', #207, #314, #930, .T. ) ;
#932 = VECTOR ( 'NONE', #562, 1000.000000000000000 ) ;
#933 = CARTESIAN_POINT ( 'NONE',  ( 9.749999999999998224, -0.5000000000000000000, -3.799999999999999822 ) ) ;
#934 = VECTOR ( 'NONE', #46, 1000.000000000000000 ) ;
#935 = VERTEX_POINT ( 'NONE', #134 ) ;
#936 = CARTESIAN_POINT ( 'NONE',  ( -9.750000000000001776, 9.700000000000001066, -3.799999999999999822 ) ) ;
#937 = CARTESIAN_POINT ( 'NONE',  ( 4.800000000000000711, 0.0000000000000000000, -2.750000000000000444 ) ) ;
ENDSEC;
END-ISO-10303-21;

